<svg width="25" height="25" viewBox="0 0 25 25" fill="none" xmlns="http://www.w3.org/2000/svg">
<rect width="25" height="25" fill="white"/>
<path d="M11.75 7C11.0625 7 10.5 7.5625 10.5 8.25H9.25C8.5625 8.25 8 8.8125 8 9.5H16.75C16.75 8.8125 16.1875 8.25 15.5 8.25H14.25C14.25 7.5625 13.6875 7 13 7H11.75ZM9.25 10.75V16.7625C9.25 16.9 9.35 17 9.4875 17H15.275C15.4125 17 15.5125 16.9 15.5125 16.7625V10.75H14.2625V15.125C14.2625 15.475 13.9875 15.75 13.6375 15.75C13.2875 15.75 13.0125 15.475 13.0125 15.125V10.75H11.7625V15.125C11.7625 15.475 11.4875 15.75 11.1375 15.75C10.7875 15.75 10.5125 15.475 10.5125 15.125V10.75H9.2625H9.25Z" fill="#184C51"/>
</svg>
